<?xml version="1.0" standalone="no"?>
<!DOCTYPE svg PUBLIC "-//W3C//DTD SVG 20010904//EN"
 "http://www.w3.org/TR/2001/REC-SVG-20010904/DTD/svg10.dtd">
<svg version="1.0" xmlns="http://www.w3.org/2000/svg"
 width="410.000000pt" height="345.000000pt" viewBox="0 0 410.000000 345.000000"
 preserveAspectRatio="xMidYMid meet">

<g transform="translate(0.000000,345.000000) scale(0.100000,-0.100000)"
fill="#000000" stroke="none">
<path d="M1694 3062 c-93 -33 -154 -102 -174 -196 -24 -116 33 -230 144 -288
35 -19 62 -23 183 -26 141 -4 142 -4 167 21 25 25 26 30 26 150 0 143 -14 204
-61 260 -65 79 -189 114 -285 79z"/>
<path d="M2403 3071 c-88 -23 -168 -101 -193 -191 -6 -20 -10 -189 -10 -391 0
-416 3 -433 79 -509 74 -74 163 -96 267 -65 64 19 113 60 149 126 l30 54 3
368 c3 405 0 435 -56 513 -53 73 -179 118 -269 95z m142 -181 l30 -30 3 -348
c2 -234 0 -359 -8 -385 -27 -91 -161 -103 -205 -17 -23 44 -22 717 1 761 33
64 124 74 179 19z"/>
<path d="M3097 2419 c-79 -19 -140 -68 -179 -143 -19 -35 -23 -62 -26 -183 -4
-141 -4 -142 21 -167 25 -25 30 -26 150 -26 192 0 261 31 322 141 38 70 41
170 7 235 -57 110 -182 171 -295 143z m90 -150 c69 -26 97 -87 70 -152 -21
-49 -60 -67 -148 -67 l-71 0 3 79 c4 87 18 112 74 137 37 16 37 16 72 3z"/>
<path d="M1043 2372 c-71 -25 -113 -60 -148 -123 -24 -45 -29 -66 -29 -124 0
-60 4 -79 30 -125 33 -60 99 -112 162 -130 22 -6 181 -10 393 -10 416 0 433 3
509 79 127 127 97 329 -61 416 l-54 30 -375 2 c-340 3 -380 1 -427 -15z"/>
<path d="M2416 1724 c-93 -29 -176 -142 -176 -241 0 -99 54 -190 141 -238 l54
-30 368 -3 c406 -3 435 0 513 57 22 17 53 54 69 83 24 44 29 65 29 123 0 60
-4 79 -30 125 -33 60 -99 112 -162 130 -22 6 -181 10 -397 9 -289 0 -370 -3
-409 -15z m795 -150 c29 -15 59 -65 59 -100 0 -34 -32 -83 -65 -98 -47 -22
-697 -24 -750 -2 -81 34 -85 158 -7 200 42 23 719 23 763 0z"/>
<path d="M1035 1684 c-125 -44 -198 -188 -161 -316 66 -227 364 -263 480 -58
30 53 31 60 35 197 3 141 3 142 -22 167 -25 25 -29 26 -159 25 -88 0 -147 -5
-173 -15z"/>
<path d="M1725 1684 c-58 -20 -106 -64 -140 -125 l-30 -54 -3 -368 c-3 -406 0
-435 57 -513 17 -22 54 -53 83 -69 44 -24 65 -29 123 -29 60 0 79 4 125 30 60
33 112 99 130 162 6 22 10 181 10 393 0 416 -3 433 -79 509 -74 74 -179 99
-276 64z"/>
<path d="M2266 1027 c-25 -25 -26 -30 -26 -155 0 -189 30 -256 141 -317 45
-25 65 -29 124 -29 79 0 131 21 184 75 122 122 93 327 -59 413 -53 30 -60 31
-197 35 -141 3 -142 3 -167 -22z m289 -143 c42 -19 69 -73 61 -118 -13 -71
-101 -115 -164 -82 -45 23 -62 63 -62 146 l0 70 66 0 c39 0 79 -6 99 -16z"/>
</g>
</svg>
